# xmcd
#
# Track frame offsets:
#	150
#	12669
#	23316
#	34988
#	49692
#	65757
#	74746
#	89539
#	101198
#	115284
#	125557
#	138130
#
# Disc length: 1991 seconds
# Revision: 2
# Processed by: cddbd v1.5.2PL0 Copyright (c) Steve Scherf et al.
# Submitted via: dBpowerAMP V12.0
#
DISCID=af07c50c
DTITLE=Darrell McCall - Keeping With Tradition
DYEAR=2009
DGENRE=Country
TTITLE0=Fast As I Can Crawl
TTITLE1=What Do You Know About Heartaches
TTITLE2=Hello Out There
TTITLE3=The Fall
TTITLE4=Speak Well Of Me
TTITLE5=That's The Way I Feel
TTITLE6=Are You Ever Coming Back To Your Memories
TTITLE7=Wall Of Tears
TTITLE8=Most Of All
TTITLE9=I'll Never Love No One But You
TTITLE10=You're Still Mine
TTITLE11=The Kind Of Love
EXTD=
EXTT0=
EXTT1=
EXTT2=
EXTT3=
EXTT4=
EXTT5=
EXTT6=
EXTT7=
EXTT8=
EXTT9=
EXTT10=
EXTT11=
PLAYORDER=
